Coordinates
version=1
nRows=26
nColumns=24
inDegrees=yes

Units are S.I. units (second, meters, Newtons, ...)
Angles are in degrees.

endheader
time	pelvis_tilt	pelvis_list	pelvis_rotation	pelvis_tx	pelvis_ty	pelvis_tz	hip_flexion_r	hip_adduction_r	hip_rotation_r	knee_angle_r	ankle_angle_r	subtalar_angle_r	mtp_angle_r	hip_flexion_l	hip_adduction_l	hip_rotation_l	knee_angle_l	ankle_angle_l	subtalar_angle_l	mtp_angle_l	lumbar_extension	lumbar_bending	lumbar_rotation
      0.98416667	     -6.94181611	     -0.71245755	     -2.54698796	     -0.05717383	      1.02994887	      0.26851101	     -6.03943579	      2.75054581	     -1.89393786	    -16.78582799	     20.33861531	      3.93866095	      5.59041720	     31.38251372	     -1.19411817	     -0.09150077	     -6.69755205	      4.61100554	      5.85409671	      4.60916838	    -10.94513049	      1.88664641	      5.12660580
      0.98833333	     -6.93474960	     -0.61121584	     -2.62237983	     -0.05107054	      1.02928112	      0.26825295	     -6.06553839	      2.55381728	     -1.94079412	    -17.48840902	     20.26690800	      4.14831375	      5.90228091	     31.50406908	     -1.03901399	      0.05348414	     -7.53972496	      4.28442108	      5.65580105	      4.71660950	    -10.89818060	      1.68125554	      5.05971436
      0.99250000	     -6.91064312	     -0.51446494	     -2.68023393	     -0.04495156	      1.02867420	      0.26794535	     -6.09446520	      2.35584518	     -2.03325349	    -18.21972132	     20.15938242	      4.40693397	      6.23858983	     31.62159128	     -0.88001038	      0.20469648	     -8.42969413	      3.95726196	      5.42426014	      4.81772323	    -10.86268885	      1.49858942	      4.99115619
      0.99666667	     -6.86166616	     -0.43167779	     -2.72078196	     -0.03882943	      1.02816471	      0.26759501	     -6.14909070	      2.17580640	     -2.09050505	    -18.93643640	     19.88524852	      4.48089272	     10.30241420	     31.71505180	     -0.72419320	      0.40660947	     -9.33708550	      3.59236486	      5.09970738	      5.90942218	    -10.85906855	      1.33924427	      4.93051702
      1.00083333	     -6.82312128	     -0.32158535	     -2.77962588	     -0.03267545	      1.02767302	      0.26727150	     -6.15126491	      1.95581876	     -2.17739539	    -19.74687806	     19.69951222	      4.73308503	     10.35244152	     31.83737351	     -0.56244555	      0.46599835	    -10.30679316	      3.31254694	      4.97148524	      5.90479971	    -10.83939546	      1.12983006	      4.85566250
      1.00500000	     -6.79274671	     -0.21962543	     -2.82398222	     -0.02651329	      1.02721236	      0.26689365	     -6.12384433	      1.74054366	     -2.28383184	    -20.59421033	     19.46573985	      4.98085738	     10.44348331	     31.96878114	     -0.39940937	      0.57825841	    -11.28949931	      3.04044790	      4.76361380	      5.89704890	    -10.80564868	      0.94068764	      4.78216119
      1.00916667	     -6.74349776	     -0.11276401	     -2.85617045	     -0.02035360	      1.02681832	      0.26646636	     -6.08891413	      1.51091202	     -2.42624932	    -21.49516343	     19.24856814	      5.26812276	     10.64577855	     32.07991059	     -0.22431400	      0.70396596	    -12.27838243	      2.75860403	      4.51453163	      5.87988017	    -10.80078242	      0.75653782	      4.69359659
      1.01333333	     -6.69828751	     -0.00406218	     -2.88792725	     -0.01416434	      1.02648782	      0.26602986	     -6.03353437	      1.27812810	     -2.54320120	    -22.41068952	     18.82706807	      5.43103109	     13.64235444	     32.17648712	     -0.04487802	      0.87197641	    -13.24394766	      2.52340610	      4.20226887	      5.61343386	    -10.78635684	      0.55979572	      4.60321350
      1.01750000	     -6.63515765	      0.11884646	     -2.93299538	     -0.00795046	      1.02623334	      0.26562374	     -5.96948123	      1.02255049	     -2.65710300	    -23.38165029	     18.43333518	      5.68306990	     13.69183002	     32.26105439	      0.12792534	      0.90160254	    -14.23792828	      2.35713410	      4.07752360	      5.60355467	    -10.79123769	      0.32905022	      4.52497606
      1.02166667	     -6.58120403	      0.23218465	     -2.96513016	     -0.00175313	      1.02599917	      0.26515032	     -5.86182737	      0.76798703	     -2.80699833	    -24.41381980	     18.02557429	      5.96004614	     13.79708612	     32.34840850	      0.30251814	      0.97715862	    -15.22071838	      2.21225168	      3.89840964	      5.58382937	    -10.79232225	      0.12856130	      4.43924842
      1.02583333	     -6.51054397	      0.35793973	     -2.99564226	      0.00443700	      1.02583466	      0.26464892	     -5.73358119	      0.48618221	     -2.99064603	    -25.51716624	     17.61806936	      6.26084683	     14.01740228	     32.39907140	      0.49150354	      1.04717893	    -16.16702553	      2.07423416	      3.69995781	      5.54136646	    -10.80689629	     -0.06673830	      4.34553764
      1.03000000	     -6.43807670	      0.49137611	     -3.03095300	      0.01065359	      1.02575533	      0.26416610	     -5.59405946	      0.19764171	     -3.12617654	    -26.62056973	     17.01376891	      6.42850938	     17.41278372	     32.41696904	      0.68782504	      1.13375903	    -17.06223357	      1.98325693	      3.44679983	      4.87291033	    -10.82417833	     -0.29955606	      4.23238436
      1.03416667	     -6.34919792	      0.60626949	     -3.05385748	      0.01684992	      1.02573133	      0.26365558	     -5.44558466	     -0.07788761	     -3.28367175	    -27.77401852	     16.41233367	      6.69525872	     17.46130566	     32.42033144	      0.86409444	      1.16585782	    -17.96616586	      1.98572822	      3.37229900	      4.86228936	    -10.86599043	     -0.51301537	      4.16875346
      1.03833333	     -6.25573815	      0.74088514	     -3.08174683	      0.02302356	      1.02574483	      0.26311911	     -5.25451307	     -0.39254574	     -3.48011920	    -29.01254868	     15.84855344	      6.99975498	     17.59526265	     32.39318640	      1.06068810	      1.18176907	    -18.81585966	      1.97987077	      3.24060177	      4.83136486	    -10.91236061	     -0.72338284	      4.07717811
      1.04250000	     -6.18070222	      0.87862048	     -3.11164090	      0.02920119	      1.02580229	      0.26259045	     -5.01855175	     -0.71234807	     -3.65371498	    -30.28253169	     15.19100981	      7.26883557	     17.78506634	     32.35348503	      1.25980398	      1.20806354	    -19.60524588	      2.01107677	      3.10424666	      4.78623426	    -10.93110855	     -0.94498638	      3.98679477
      1.04666667	     -6.07691130	      1.01201829	     -3.13615522	      0.03533566	      1.02595087	      0.26205642	     -4.79035971	     -1.03188426	     -3.81487041	    -31.56951991	     14.40603374	      7.45489000	     21.09697871	     32.26194247	      1.46078145	      1.24239814	    -20.35381235	      2.10784978	      2.95901073	      3.95386741	    -10.99750925	     -1.17354632	      3.88385346
      1.05083333	     -5.97680963	      1.15221631	     -3.16356080	      0.04144828	      1.02613654	      0.26153241	     -4.52187530	     -1.36495592	     -3.97921492	    -32.92009778	     13.65782462	      7.68709723	     21.13586917	     32.14999899	      1.66202648	      1.23542105	    -21.05116937	      2.22088432	      2.87328284	      3.94290535	    -11.05492949	     -1.40438902	      3.80174115
      1.05500000	     -5.88112806	      1.29930615	     -3.19229659	      0.04752566	      1.02635949	      0.26099979	     -4.21599462	     -1.71354767	     -4.13979617	    -34.31532257	     12.87425182	      7.92264913	     21.21587778	     32.01505933	      1.87252426	      1.23205775	    -21.68996261	      2.36020754	      2.76639389	      3.91954697	    -11.11066005	     -1.64134077	      3.70866738
      1.05916667	     -5.80186978	      1.44685116	     -3.22211985	      0.05357042	      1.02660210	      0.26048204	     -3.86244584	     -2.06480671	     -4.28678223	    -35.74636459	     12.05159358	      8.13913187	     21.33904398	     31.87185206	      2.08232114	      1.22674021	    -22.27737618	      2.53022885	      2.65953127	      3.88182907	    -11.14565978	     -1.87926325	      3.61273863
      1.06333333	     -5.67548327	      1.61590244	     -3.25534978	      0.05956195	      1.02699352	      0.25996353	     -3.53239014	     -2.44521932	     -4.42017096	    -37.19693221	     11.14594810	      8.26880481	     23.12232233	     31.63096604	      2.32836026	      1.27886755	    -22.76625316	      2.70427591	      2.41283657	      3.25293270	    -11.25092324	     -2.14320600	      3.47737217
      1.06750000	     -5.59236589	      1.75590284	     -3.29097851	      0.06552107	      1.02733655	      0.25948534	     -3.12927247	     -2.78847464	     -4.52733304	    -38.67870559	     10.23260112	      8.42501287	     23.13919111	     31.43913703	      2.52284206	      1.23183384	    -23.26355495	      2.97507385	      2.42008270	      3.24767397	    -11.29456357	     -2.37066996	      3.40828078
      1.07166667	     -5.50091106	      1.90714143	     -3.33279216	      0.07141504	      1.02772678	      0.25902293	     -2.70334088	     -3.14642249	     -4.61945730	    -40.19352748	      9.31663304	      8.53732315	     23.15697911	     31.21401673	      2.73072054	      1.19354657	    -23.70741444	      3.24577804	      2.35764189	      3.23755437	    -11.35896251	     -2.60954951	      3.32358936
      1.07583333	     -5.43515747	      2.07066739	     -3.37736980	      0.07726289	      1.02811027	      0.25857529	     -2.21700043	     -3.52005738	     -4.70808933	    -41.74424622	      8.40792420	      8.63472745	     23.19047633	     30.99287425	      2.94983909	      1.15424728	    -24.09799391	      3.49542512	      2.25560144	      3.20822492	    -11.39182066	     -2.87077649	      3.22961692
      1.08000000	     -5.33806825	      2.22986888	     -3.43124360	      0.08305932	      1.02860361	      0.25816136	     -1.74631433	     -3.88401538	     -4.75929683	    -43.28938676	      7.45267982	      8.67489991	     23.20016083	     30.71085070	      3.16529085	      1.12833166	    -24.43456428	      3.80335651	      2.16243685	      3.18760945	    -11.46490881	     -3.11486760	      3.13899788
      1.08416667	     -5.26986669	      2.38838120	     -3.49212604	      0.08879829	      1.02907737	      0.25777858	     -1.21470120	     -4.24367894	     -4.79686443	    -44.85609209	      6.50030424	      8.67042527	     23.19666866	     30.44110874	      3.37371216	      1.09206640	    -24.72690949	      4.10996770	      2.06395307	      3.16363367	    -11.50895551	     -3.36740222	      3.04592300
      1.08833333	     -5.19629516	      2.55578982	     -3.56207429	      0.09448236	      1.02960199	      0.25743409	     -0.66490561	     -4.60784204	     -4.81043614	    -46.42630700	      5.55820573	      8.61794192	     23.17602861	     30.14476619	      3.58831108	      1.05256538	    -24.97280245	      4.41970357	      1.96273533	      3.13656579	    -11.56128726	     -3.62437268	      2.95446602
